<?xml version="1.0" encoding="UTF-8" standalone="no"?>
<!DOCTYPE svg PUBLIC "-//W3C//DTD SVG 1.1//EN"
 "http://www.w3.org/Graphics/SVG/1.1/DTD/svg11.dtd">
<!-- Generated by graphviz version 2.43.0 (0)
 -->
<!-- Title: sourcetree Pages: 1 -->
<svg width="322pt" height="116pt"
 viewBox="0.00 0.00 321.50 116.00" xmlns="http://www.w3.org/2000/svg" xmlns:xlink="http://www.w3.org/1999/xlink">
<g id="graph0" class="graph" transform="scale(1 1) rotate(0) translate(4 112)">
<title>sourcetree</title>
<polygon fill="white" stroke="transparent" points="-4,4 -4,-112 317.5,-112 317.5,4 -4,4"/>
<!-- MulleObjCValueFoundation -->
<g id="node1" class="node">
<title>MulleObjCValueFoundation</title>
<polygon fill="yellow" stroke="black" points="274,-108 62,-108 62,-72 274,-72 274,-108"/>
<text text-anchor="middle" x="168" y="-86.3" font-family="Times,serif" font-size="14.00">MulleObjCValueFoundation</text>
</g>
<!-- mulle&#45;buffer -->
<g id="node2" class="node">
<title>mulle&#45;buffer</title>
<g id="a_node2"><a xlink:href="https://github.com/mulle-c/mulle-buffer" xlink:title="mulle&#45;buffer">
<polygon fill="lightgrey" stroke="black" points="104,-36 0,-36 0,0 104,0 104,-36"/>
<text text-anchor="middle" x="52" y="-14.3" font-family="Times,serif" font-size="14.00">mulle&#45;buffer</text>
</a>
</g>
</g>
<!-- MulleObjCValueFoundation&#45;&gt;mulle&#45;buffer -->
<g id="edge1" class="edge">
<title>MulleObjCValueFoundation&#45;&gt;mulle&#45;buffer</title>
<path fill="none" stroke="black" d="M139.62,-71.88C124.46,-62.72 105.59,-51.34 89.26,-41.48"/>
<polygon fill="black" stroke="black" points="90.86,-38.36 80.49,-36.19 87.24,-44.35 90.86,-38.36"/>
</g>
<!-- MulleObjC -->
<g id="node3" class="node">
<title>MulleObjC</title>
<g id="a_node3"><a xlink:href="https://github.com/mulle-objc/MulleObjC" xlink:title="MulleObjC">
<polygon fill="lightgrey" stroke="black" points="214,-36 122,-36 122,0 214,0 214,-36"/>
<text text-anchor="middle" x="168" y="-14.3" font-family="Times,serif" font-size="14.00">MulleObjC</text>
</a>
</g>
</g>
<!-- MulleObjCValueFoundation&#45;&gt;MulleObjC -->
<g id="edge2" class="edge">
<title>MulleObjCValueFoundation&#45;&gt;MulleObjC</title>
<path fill="none" stroke="black" d="M168,-71.7C168,-63.98 168,-54.71 168,-46.11"/>
<polygon fill="black" stroke="black" points="171.5,-46.1 168,-36.1 164.5,-46.1 171.5,-46.1"/>
</g>
<!-- mulle&#45;utf -->
<g id="node4" class="node">
<title>mulle&#45;utf</title>
<g id="a_node4"><a xlink:href="https://github.com/mulle-c/mulle-utf" xlink:title="mulle&#45;utf">
<polygon fill="lightgrey" stroke="black" points="313.5,-36 232.5,-36 232.5,0 313.5,0 313.5,-36"/>
<text text-anchor="middle" x="273" y="-14.3" font-family="Times,serif" font-size="14.00">mulle&#45;utf</text>
</a>
</g>
</g>
<!-- MulleObjCValueFoundation&#45;&gt;mulle&#45;utf -->
<g id="edge3" class="edge">
<title>MulleObjCValueFoundation&#45;&gt;mulle&#45;utf</title>
<path fill="none" stroke="black" d="M193.69,-71.88C207.29,-62.81 224.17,-51.55 238.86,-41.76"/>
<polygon fill="black" stroke="black" points="240.84,-44.65 247.22,-36.19 236.95,-38.82 240.84,-44.65"/>
</g>
</g>
</svg>
